<svg width="227" height="150" viewBox="0 0 227 150" fill="none" xmlns="http://www.w3.org/2000/svg">
<path d="M159.53 44.9739L159.465 63.9034H145.627V0H159.595H161.162H171.214C179.439 0 183.616 2.21932 183.681 6.65797V37.859C183.681 42.2977 179.7 44.4517 171.671 44.4517H159.595V44.9739H159.53ZM169.778 7.37597H159.399V37.0104H169.778V7.37597Z" fill="#0066CC"/>
<path d="M11.6841 63.9686L11.6188 82.8981H0V18.9948H11.6841H12.9896H21.4099C28.329 18.9948 31.7885 21.2141 31.8538 25.6527V56.8538C31.8538 61.2924 28.5248 63.4464 21.8016 63.4464H11.6841V63.9686ZM20.3003 26.436H11.6188V56.0705H20.3003V26.436V26.436Z" fill="#0066CC"/>
<path d="M67.624 63.4464H45.5613C39.0992 63.4464 35.8355 61.2271 35.8355 56.7885L35.9008 43.7989C35.9008 39.4256 39.2298 37.2062 45.953 37.141H56.0705V26.436H47.389L47.3238 32.3107H35.966V25.6527C35.966 21.2793 39.3603 19.1253 46.1488 19.1253L57.5065 18.9948C64.2298 18.9948 67.624 21.2141 67.624 25.5874V63.4464ZM47.4543 56.0052H56.201L56.1358 44.5822H47.4543V56.0052V56.0052Z" fill="#0066CC"/>
<path d="M93.0157 63.4464H82.8329C76.1096 63.4464 72.7807 61.2271 72.7807 56.8538V25.6527C72.846 21.2141 76.3055 18.9948 83.2245 18.9948H91.6449H93.0809H104.634V76.3055C104.634 80.7441 101.24 82.9634 94.517 82.9634H82.9634C76.2402 82.9634 72.8459 80.7441 72.8459 76.3055V69.7128H84.3995V75.5874H93.0809V63.9687L93.0157 63.4464ZM84.3342 56.0052H93.0157V26.436H84.3342V56.0052Z" fill="#0066CC"/>
<path d="M140.405 56.7885C140.339 61.2271 136.88 63.3812 129.961 63.3812H118.734C111.945 63.3812 108.551 61.1618 108.551 56.7885V25.5874C108.551 21.1488 111.945 18.9948 118.734 18.9948H130.287C137.01 18.9948 140.339 21.2141 140.339 25.5874V56.7885H140.405ZM128.916 26.436H120.17V56.0705H128.851L128.916 26.436Z" fill="#0066CC"/>
<path d="M226.305 6.98435C226.305 2.54571 222.324 0.391663 214.295 0.391663H200.457C192.363 0.391663 188.316 2.61098 188.316 6.98435V64.034H202.154V44.517H212.598V60.8355C212.598 102.611 178.851 136.358 137.076 136.358C112.859 136.358 91.2533 124.935 77.4152 107.245L84.3342 101.958L56.5274 83.2245L57.7676 122.715L66.6449 115.666C82.9634 136.554 108.486 150 137.076 150C186.423 150 226.371 109.987 226.371 60.705L226.305 6.98435ZM212.533 37.0757H202.089V7.70237H212.533V37.0757Z" fill="#0066CC"/>
</svg>
